<?xml version="1.0" encoding="UTF-8" standalone="no"?>
<svg
   version="1.1"
   id="Layer_1"
   x="0px"
   y="0px"
   width="604"
   height="604"
   enable-background="new 0 0 1264 842"
   xml:space="preserve"
   viewBox="330.92 115.55 603.94 603.94"
   xmlns="http://www.w3.org/2000/svg"
   xmlns:svg="http://www.w3.org/2000/svg"><defs
   id="defs7" />
  
  <g
   fill="#22d3ee"
   stroke="none"
   id="g7">
    
    <path
   d="m 535.4,648.4 c 79.3,-45.5 158.3,-90.8 237.3,-136.1 34.4,-19.8 68.9,-39.3 103.2,-59.2 20.1,-11.7 27.1,-34.3 16.9,-53.7 -3.7,-7.1 -9,-12.8 -16,-16.8 C 835.2,358.7 793.6,334.9 752,311 679.3,269.4 606.6,227.7 533.9,186.1 521.5,179 509.3,171.4 496.5,165 c -28.7,-14.4 -58.6,4 -58.7,36.2 -0.1,61.4 0,110.70119 0,172.00119 0,10.35535 -8.39466,18.74999 -18.75,18.74999 -10.35534,0 -18.75,-8.39464 -18.75,-18.74999 0,-51.7 -0.1,-93.20119 0,-146.70119 0,-12.6 -0.3,-25.3 0.9,-37.9 3.5,-38.4 41.1,-69.1 79.5,-66 13.5,1.1 25.6,5.2 37.2,11.9 88.3,50.6 176.6,101.2 264.9,151.7 37.6,21.6 75.2,43.1 112.7,64.6 52.3,29.9 52.5,103.4 0.3,133.6 -51.8,29.9 -103.8,59.4 -155.6,89.2 -69.8,40 -139.5,80.1 -209.4,120 -10.1,5.8 -20.3,12 -31.2,15.4 -44.3,13.9 -89.6,-13.9 -98.1,-59.5 -0.9,-4.7 -1.2,-9.6 -1.2,-14.4 -0.1,-62.8 -0.1,-110.40152 -0.1,-173.30152 0,-10.38296 8.41705,-18.79999 18.8,-18.79999 10.38295,0 18.8,8.41703 18.8,18.79999 -0.1,61.9 -0.1,107.20152 0,167.70152 0,5.7 0.3,11.8 1.9,17.2 6.8,23.5 32.3,35.4 54.3,24.7 14.1,-6.7 27.4,-15.1 41.4,-23 z"
   id="path1" />

    <path
   d="m 382,425 c -14.3,0 -28.2,0 -42,0 -6,0 -9.1,-2.7 -9.1,-7.5 0.1,-4.9 3.1,-7.4 9.2,-7.5 60.4,0 120.9,0 181.4,0 2.8,0 5.6,0 9.3,0 0,-5.6 0,-11 0,-16.5 0,-3 -0.1,-6 0,-9 0.2,-7.2 4.9,-12.1 11.7,-12.1 6.7,-0.1 11.5,5 11.6,12.3 0.1,12.4 0,24.7 0.1,37 0,7.5 0.1,15 0,22.5 -0.2,7.3 -5.1,12.5 -11.6,12.5 -6.8,0.1 -11.7,-5.2 -11.8,-12.7 -0.1,-6.1 0,-12.2 0,-19 -49.8,0 -99.1,0 -148.8,0 z"
   id="path2" />

    <path
   d="m 858.6,425 c -41.1,0 -81.7,0 -122.8,0 0,4.4 0,8.1 0,11.9 -0.2,7.6 -5,12.8 -11.8,12.8 -6.9,0 -11.7,-5 -11.8,-12.7 -0.1,-14.7 -0.1,-29.3 0,-44 0,-7.6 5.1,-12.8 11.8,-12.8 6.8,0.1 11.6,5.3 11.7,12.9 0.1,5.5 0,10.9 0,16.9 2.5,0 4.3,0 6.1,0 38.1,0 76.3,0 114.4,0 0.7,0 1.4,0 2,0 5.5,0.1 8.5,2.5 8.8,6.8 0.4,4.7 -2.4,7.4 -8.4,8.2 z"
   id="path3" />

    <path
   d="m 567,343.5 a 11.5,11.5 0 0 1 23,0 v 129 a 11.5,11.5 0 0 1 -23,0 z"
   id="path4" />
    <path
   d="m 603.5,306.5 a 11.5,11.5 0 0 1 23,0 v 205 a 11.5,11.5 0 0 1 -23,0 z"
   id="path5" />
    <path
   d="m 640,377.5 a 11.5,11.5 0 0 1 23,0 v 76 a 11.5,11.5 0 0 1 -23,0 z"
   id="path6" />
    <path
   d="m 676.5,357.5 a 11.5,11.5 0 0 1 23,0 v 115 a 11.5,11.5 0 0 1 -23,0 z"
   id="path7" />
    
  </g>

</svg>
