<svg xmlns="http://www.w3.org/2000/svg" viewBox="0 8 108 52" role="img" aria-label="Wroughtery mark (cold)">
  
  <path d="M 3.5 18.2 Q 3 18.5 3.5 18.8 C 12 26 25 32 38 32 C 42 32 46 34 46 42 C 46 50 38 52 33.5 53 Q 33 53.5 33 54.5 L 33 57 Q 33 58 34 58 L 43 58 C 49 58 53 55 60 55 C 66 55 70 58 74 58 L 82 58 Q 83 58 83 57 L 83 54.5 Q 83 53.5 82.5 53 C 82 52 65 50 65 40 C 65 30 85 23 103.5 22 Q 104 22 104 21.5 L 104 16.5 Q 104 16 103.5 16 L 41.5 16 Q 41 16 41 16.5 L 41 18 Q 41 18.5 40.5 18.5 L 3.5 18.2 Z" fill="currentColor"></path>
</svg>